<svg width="61" height="64" viewBox="0 0 61 64" fill="none" xmlns="http://www.w3.org/2000/svg">
<g clip-path="url(#clip0_1_2264)">
<path d="M30.2829 64C47.0078 64 60.5659 50.4418 60.5659 33.717C60.5659 16.9922 47.0078 3.43408 30.2829 3.43408C13.5581 3.43408 0 16.9922 0 33.717C0 50.4418 13.5581 64 30.2829 64Z" fill="#FCE8E3"/>
<path d="M38.2906 29.7296H22.2703V47.8278H38.2906V29.7296Z" fill="#E2988F"/>
<path d="M45.9725 17.024C45.0882 14.9082 43.2816 15.9498 43.2816 15.9498C44.3286 6.34195 39.4406 0 30.283 0C21.1255 0 16.2374 6.34195 17.2791 15.9498C17.2791 15.9498 15.4725 14.9136 14.5882 17.024C13.7039 19.1344 15.3206 24.0929 16.3188 25.6716C17.317 27.2449 19.0856 28.4384 19.0856 28.4384C19.0856 28.4384 19.1996 30.207 19.6607 31.4331C20.1218 32.6646 25.3462 38.3175 26.8815 39.1801C28.8942 40.3682 31.8672 40.3682 33.6737 39.1801C35.209 38.3175 40.4388 32.6646 40.8946 31.4331C41.3557 30.2016 41.4696 28.4384 41.4696 28.4384C41.4696 28.4384 43.2382 27.2449 44.2364 25.6716C45.2346 24.0983 46.8513 19.1398 45.967 17.024H45.9725Z" fill="#E2988F"/>
<path d="M30.3643 40.2651C29.1057 40.2651 27.8199 39.9613 26.7837 39.3537C25.856 38.8329 23.7131 36.69 22.1235 34.9214L22.4273 34.6501C24.0494 36.4513 26.1381 38.5237 26.9899 39.0011C28.9375 40.1458 31.8291 40.1512 33.5705 39.0065C34.4385 38.5182 36.5272 36.4459 38.1439 34.6501L38.4477 34.9214C36.8527 36.69 34.7152 38.8275 33.7821 39.3537C32.8598 39.9613 31.6283 40.2651 30.3643 40.2651Z" fill="#C46966"/>
<path d="M18.7805 24.2875L18.3767 24.3373L18.8846 28.4563L19.2885 28.4065L18.7805 24.2875Z" fill="#C46966"/>
<path d="M41.7531 24.2941L41.2947 28.4135L41.6991 28.4585L42.1575 24.3391L41.7531 24.2941Z" fill="#C46966"/>
<path d="M15.7708 21.7764C15.684 21.4672 14.9679 18.7112 15.9607 17.9572C16.2916 17.7456 16.5574 17.7673 16.7256 17.8215C17.2301 17.9843 17.4851 18.6136 17.5122 18.6841L17.1325 18.8306C17.0782 18.6895 16.8721 18.2989 16.6008 18.2121C16.4761 18.1687 16.3404 18.2013 16.1939 18.2935C15.6243 18.7275 15.8684 20.5992 16.1614 21.6734L15.7708 21.7819V21.7764Z" fill="#C46966"/>
<path d="M44.7952 21.7764L44.4046 21.6679C44.6975 20.5937 44.9471 18.7221 44.3612 18.2827C44.2255 18.1959 44.0899 18.1687 43.9651 18.2067C43.6396 18.3152 43.4335 18.8197 43.4335 18.8252L43.0537 18.6787C43.0808 18.6082 43.3358 17.9843 43.8403 17.8161C44.0085 17.7618 44.2798 17.7401 44.5944 17.9463C45.5981 18.7058 44.882 21.4618 44.7952 21.771V21.7764Z" fill="#C46966"/>
<path d="M18.581 21.0006C21.299 21.0169 19.2429 12.2445 21.375 10.1178C22.46 9.03823 24.0387 9.21726 25.395 9.55904C26.9737 9.9605 28.6066 10.5084 30.2721 10.5518C32.0353 10.6007 33.7117 9.94965 35.4043 9.54277C36.7172 9.22268 38.144 9.08163 39.1856 10.1178C41.3177 12.239 39.2615 21.0114 41.9795 21.0006C41.7896 18.9716 41.7842 16.7527 43.2761 15.9498C44.3286 6.34195 39.4406 0 30.283 0C21.1254 0 16.2374 6.34195 17.279 15.9498C18.4888 16.7365 18.7655 18.8794 18.5756 21.0006H18.581Z" fill="#4C224B"/>
<path d="M56.1662 49.4445C47.6163 45.6306 38.2959 44.2798 38.2959 44.2798C34.0209 48.7392 26.0515 48.7989 22.2756 44.2798C22.2756 44.2798 12.9552 45.6306 4.40527 49.4445C9.72188 58.1681 19.3243 64.0001 30.2885 64.0001C41.2526 64.0001 50.855 58.1735 56.1716 49.4445H56.1662Z" fill="#F4BA5D"/>
<path d="M20.1055 44.589L22.2701 40.7046L29.2793 46.9977L24.9935 51.6959L20.1055 44.589Z" fill="white"/>
<path d="M40.4497 44.589L38.2851 40.7046L31.2759 46.9977L35.5671 51.6959L40.4497 44.589Z" fill="white"/>
</g>
<defs>
<clipPath id="clip0_1_2264">
<rect width="60.5659" height="64" fill="white"/>
</clipPath>
</defs>
</svg>
