<svg width="16" height="16" viewBox="0 0 16 16" fill="none" xmlns="http://www.w3.org/2000/svg">
<path fill-rule="evenodd" clip-rule="evenodd" d="M7.15875 11.0848C6.64301 11.0848 6.2128 10.6906 6.16776 10.1769C6.0736 9.10267 6.04977 8.02369 6.09634 6.94682C6.04013 6.94306 5.98392 6.93913 5.92772 6.93503L4.93468 6.86265C4.29998 6.81638 3.94518 6.10867 4.28784 5.57241C5.01863 4.42874 6.35811 3.1487 7.46041 2.35688C7.78296 2.12518 8.21739 2.12518 8.53994 2.35688C9.64223 3.1487 10.9817 4.42874 11.7125 5.57241C12.0552 6.10867 11.7004 6.81638 11.0657 6.86265L10.0726 6.93503C10.0164 6.93913 9.96022 6.94306 9.904 6.94682C9.95058 8.02369 9.92675 9.10267 9.83258 10.1769C9.78755 10.6906 9.35734 11.0848 8.8416 11.0848H7.15875ZM7.12115 6.50829C7.04534 7.69978 7.0595 8.89533 7.16353 10.0848H8.83682C8.94085 8.89533 8.95501 7.69978 8.8792 6.50829C8.8707 6.37471 8.91611 6.2433 9.00527 6.14348C9.09443 6.04365 9.2199 5.98374 9.35359 5.97715C9.56914 5.96653 9.78461 5.95337 9.99993 5.93768L10.7211 5.88511C10.0814 4.94291 9.28044 4.12007 8.35436 3.45484L8.00017 3.20041L7.64598 3.45484C6.71991 4.12007 5.91891 4.94291 5.27921 5.88511L6.00042 5.93768C6.21574 5.95337 6.4312 5.96653 6.64676 5.97715C6.78045 5.98374 6.90591 6.04365 6.99507 6.14348C7.08424 6.24331 7.12965 6.37471 7.12115 6.50829Z" fill="#1737AF"/>
<path d="M3.8335 11.3333C3.8335 11.0571 3.60964 10.8333 3.3335 10.8333C3.05735 10.8333 2.8335 11.0571 2.8335 11.3333V12.6666C2.8335 13.3109 3.35583 13.8333 4.00016 13.8333H12.0002C12.6445 13.8333 13.1668 13.3109 13.1668 12.6666V11.3333C13.1668 11.0571 12.943 10.8333 12.6668 10.8333C12.3907 10.8333 12.1668 11.0571 12.1668 11.3333V12.6666C12.1668 12.7587 12.0922 12.8333 12.0002 12.8333H4.00016C3.90812 12.8333 3.8335 12.7587 3.8335 12.6666V11.3333Z" fill="#1737AF"/>
</svg>
